<svg width="600" height="450" viewBox="0 0 800 600" fill="none" xmlns="http://www.w3.org/2000/svg" data-reactroot="">
<path fill-rule="evenodd" clip-rule="evenodd" d="M748.881 247.96H247.047C235.341 247.96 225.851 257.449 225.851 269.155V309.466C225.851 321.172 235.341 330.661 247.047 330.661H748.881C760.587 330.661 770.077 321.172 770.077 309.466V269.155C770.077 257.449 760.587 247.96 748.881 247.96ZM247.047 247.038C234.832 247.038 224.93 256.94 224.93 269.155V309.466C224.93 321.681 234.832 331.583 247.047 331.583H748.881C761.096 331.583 770.998 321.681 770.998 309.466V269.155C770.998 256.94 761.096 247.038 748.881 247.038H247.047Z" fill="#4151f6"></path>
<path fill-rule="evenodd" clip-rule="evenodd" d="M320.468 139.699L333.381 152.612C338.437 157.667 346.633 157.667 351.688 152.612C356.383 147.917 363.996 147.917 368.691 152.612C373.746 157.667 381.942 157.667 386.997 152.612C391.693 147.917 399.305 147.917 404.001 152.612C409.056 157.667 417.252 157.667 422.307 152.612C427.002 147.917 434.615 147.917 439.31 152.612C444.365 157.667 452.561 157.667 457.616 152.612C462.312 147.917 469.924 147.917 474.62 152.612C479.675 157.667 487.871 157.667 492.926 152.612C497.621 147.917 505.234 147.917 509.929 152.612C514.986 157.669 523.208 157.639 528.262 152.586C532.948 147.9 540.555 147.83 545.295 152.457L554.501 161.444L555.145 160.784L545.938 151.797C540.835 146.816 532.651 146.894 527.611 151.934C522.914 156.63 515.275 156.655 510.581 151.961C505.526 146.905 497.33 146.905 492.274 151.961C487.579 156.656 479.967 156.656 475.271 151.961C470.216 146.905 462.02 146.905 456.965 151.961C452.27 156.656 444.657 156.656 439.962 151.961C434.907 146.905 426.71 146.905 421.655 151.961C416.96 156.656 409.347 156.656 404.652 151.961C399.597 146.905 391.401 146.905 386.346 151.961C381.65 156.656 374.038 156.656 369.343 151.961C364.287 146.905 356.091 146.905 351.036 151.961C346.341 156.656 338.728 156.656 334.033 151.961L321.12 139.047L320.468 139.699Z" fill="#4151f6"></path>
<path fill-rule="evenodd" clip-rule="evenodd" d="M657.629 444.614L657.629 134.986C657.629 123.28 648.14 113.791 636.434 113.791L586.49 113.791C574.784 113.791 565.295 123.28 565.295 134.986L565.295 444.614C565.295 456.32 574.784 465.81 586.49 465.81L636.434 465.81C648.14 465.81 657.629 456.32 657.629 444.614ZM658.551 134.986C658.551 122.771 648.649 112.869 636.434 112.869L586.49 112.869C574.275 112.869 564.373 122.771 564.373 134.986L564.373 444.614C564.373 456.829 574.275 466.731 586.49 466.731L636.434 466.731C648.649 466.731 658.551 456.829 658.551 444.614L658.551 134.986Z" fill="#4151f6"></path>
<path fill-rule="evenodd" clip-rule="evenodd" d="M449.046 481.725H101.691C89.9853 481.725 80.4958 491.215 80.4958 502.921V525.3C80.4958 537.006 89.9853 546.496 101.691 546.496H449.046C460.752 546.496 470.241 537.006 470.241 525.3V502.921C470.241 491.215 460.752 481.725 449.046 481.725ZM101.691 480.804C89.4764 480.804 79.5742 490.706 79.5742 502.921V525.3C79.5742 537.515 89.4763 547.417 101.691 547.417H449.046C461.261 547.417 471.163 537.515 471.163 525.3V502.921C471.163 490.706 461.261 480.804 449.046 480.804H101.691Z" fill="#B0C1E1"></path>
<path fill-rule="evenodd" clip-rule="evenodd" d="M331.014 265.515L318.101 278.428C313.046 283.484 313.046 291.68 318.101 296.735C322.796 301.43 322.796 309.043 318.101 313.738C313.046 318.793 313.046 326.989 318.101 332.044C322.796 336.74 322.796 344.352 318.101 349.048C313.046 354.103 313.046 362.299 318.101 367.354C322.796 372.049 322.796 379.662 318.101 384.357C313.046 389.412 313.046 397.608 318.101 402.664C322.796 407.359 322.796 414.971 318.101 419.667C313.046 424.722 313.046 432.918 318.101 437.973C322.796 442.668 322.796 450.281 318.101 454.976C313.044 460.033 313.074 468.256 318.128 473.309C322.813 477.995 322.883 485.602 318.257 490.342L309.27 499.548L309.929 500.192L318.916 490.986C323.897 485.883 323.819 477.698 318.779 472.658C314.083 467.961 314.059 460.322 318.753 455.628C323.808 450.573 323.808 442.377 318.753 437.322C314.057 432.626 314.057 425.014 318.753 420.318C323.808 415.263 323.808 407.067 318.753 402.012C314.057 397.317 314.057 389.704 318.753 385.009C323.808 379.954 323.808 371.758 318.753 366.702C314.057 362.007 314.057 354.395 318.753 349.699C323.808 344.644 323.808 336.448 318.753 331.393C314.057 326.698 314.057 319.085 318.753 314.39C323.808 309.335 323.808 301.138 318.753 296.083C314.057 291.388 314.057 283.775 318.753 279.08L331.666 266.167L331.014 265.515Z" fill="#4151f6"></path>
<rect x="511.148" y="228.345" width="8.48315" height="24.1008" rx="2.76463" fill="#f16a8d"></rect>
<rect x="374.649" y="192.603" width="8.48315" height="24.1008" rx="2.76463" transform="rotate(-90 374.649 192.603)" fill="#f16a8d"></rect>
<rect x="511.148" y="256.814" width="8.48315" height="24.1008" rx="2.76463" fill="#f16a8d"></rect>
<rect x="517.396" y="185.671" width="239.402" height="168.159" rx="22.117" transform="rotate(90 517.396 185.671)" fill="#4151f6"></rect>
<path d="M354.232 312.287V359.214H428.916L354.232 312.287Z" fill="#f16a8d"></path>
<path d="M430.865 274.295L392.025 359.213H466.709L430.865 274.295Z" fill="#f16a8d"></path>
<path d="M363.471 341.379L439.169 359.214L424.382 322.724L385.17 295.695L363.471 341.379Z" fill="#f16a8d"></path>
<path d="M354.353 336.127H384.561L381.865 325.89L370.698 308.562L354.353 336.127Z" fill="#f16a8d"></path>
<path d="M426.555 313.715L456.556 320.895L454.068 303.477L442.9 286.149L426.555 313.715Z" fill="#f16a8d"></path>
<path d="M395.512 331.088L425.514 338.268L423.025 320.851L411.858 303.522L395.512 331.088Z" fill="#f16a8d"></path>
<path d="M468.207 274.295L429.367 359.213H504.051L468.207 274.295Z" fill="#f16a8d"></path>
<path d="M511.149 281.198L436.465 359.215H511.149V281.198Z" fill="#f16a8d"></path>
<circle cx="379.502" cy="231.953" r="15.0156" fill="#f16a8d"></circle>
<rect x="513.936" y="189.13" width="232.483" height="161.239" rx="18.657" transform="rotate(90 513.936 189.13)" stroke="#78D2EE" stroke-width="6.92"></rect>
<path d="M353.826 356.126H511.148V402.402C511.148 411.305 503.931 418.522 495.028 418.522H369.946C361.043 418.522 353.826 411.305 353.826 402.402V356.126Z" fill="#4151f6"></path>
<rect x="371.139" y="370.258" width="126.592" height="29.3168" rx="5" fill="white" fill-opacity="0.8"></rect>
<rect x="378.958" y="375.548" width="18.7379" height="18.7379" rx="4" fill="#4151f6"></rect>
<rect x="409.696" y="375.548" width="18.7379" height="18.7379" rx="4" fill="#4151f6"></rect>
<rect x="440.434" y="375.548" width="18.7379" height="18.7379" rx="4" fill="#4151f6"></rect>
<rect x="471.172" y="375.548" width="18.7379" height="18.7379" rx="4" fill="#4151f6"></rect>
<rect x="378.959" y="216.938" width="18.7379" height="18.7379" rx="4" fill="black" fill-opacity="0.1"></rect>
<rect x="409.697" y="216.938" width="18.7379" height="18.7379" rx="4" fill="black" fill-opacity="0.1"></rect>
<rect x="440.435" y="216.938" width="18.7379" height="18.7379" rx="4" fill="black" fill-opacity="0.1"></rect>
<rect x="471.173" y="216.938" width="18.7379" height="18.7379" rx="4" fill="black" fill-opacity="0.1"></rect>
<rect x="378.959" y="250.676" width="18.7379" height="18.7379" rx="4" fill="black" fill-opacity="0.1"></rect>
<rect x="409.697" y="250.676" width="18.7379" height="18.7379" rx="4" fill="black" fill-opacity="0.1"></rect>
<rect x="440.435" y="250.676" width="18.7379" height="18.7379" rx="4" fill="black" fill-opacity="0.1"></rect>
<rect x="471.173" y="250.676" width="18.7379" height="18.7379" rx="4" fill="black" fill-opacity="0.1"></rect>
<rect x="378.959" y="284.413" width="18.7379" height="18.7379" rx="4" fill="black" fill-opacity="0.1"></rect>
<rect x="409.697" y="284.413" width="18.7379" height="18.7379" rx="4" fill="black" fill-opacity="0.1"></rect>
<rect x="440.435" y="284.413" width="18.7379" height="18.7379" rx="4" fill="black" fill-opacity="0.1"></rect>
<rect x="471.173" y="284.413" width="18.7379" height="18.7379" rx="4" fill="black" fill-opacity="0.1"></rect>
<ellipse cx="400" cy="547.417" rx="166.904" ry="2.35051" fill="#002B6C" fill-opacity="0.1"></ellipse>
<path fill-rule="evenodd" clip-rule="evenodd" d="M560.614 527.779L237.586 527.78C235.296 527.78 233.439 525.923 233.439 523.633C233.439 521.342 235.296 519.486 237.586 519.486L560.614 519.485C562.905 519.485 564.761 521.342 564.761 523.632C564.761 525.923 562.905 527.779 560.614 527.779Z" fill="#B0C1E1"></path>
<path d="M583.635 218.927C576.464 218.927 570.631 212.756 570.631 205.171V78.3417C570.631 70.7567 576.464 64.5859 583.635 64.5859H637.792C644.963 64.5859 650.796 70.7567 650.796 78.3417V205.171C650.796 212.756 644.963 218.927 637.792 218.927H583.635Z" fill="#4151f6"></path>
<path d="M637.792 215.299H583.635C578.448 215.299 574.242 210.851 574.242 205.363V78.534C574.242 73.0465 578.448 68.598 583.635 68.598H637.792C642.98 68.598 647.185 73.0465 647.185 78.534V205.363C647.185 210.851 642.98 215.299 637.792 215.299Z" fill="#E6E6E6"></path>
<path d="M638.877 215.299H582.549C578.924 215.299 575.985 212.191 575.985 208.357V75.5407C575.985 71.7064 578.924 68.598 582.549 68.598H638.877C642.502 68.598 645.441 71.7064 645.441 75.5407V208.357C645.441 212.191 642.502 215.299 638.877 215.299Z" fill="white"></path>
<path d="M618.456 210.702H602.97C602.452 210.702 602.031 210.258 602.031 209.709C602.031 209.16 602.452 208.715 602.97 208.715H618.456C618.975 208.715 619.395 209.16 619.395 209.709C619.395 210.258 618.975 210.702 618.456 210.702Z" fill="#E6E6E6"></path>
<path d="M628.656 79.492H592.772C590.325 79.492 588.341 77.3934 588.341 74.8046V68.598H633.087V74.8046C633.087 77.3934 631.103 79.492 628.656 79.492Z" fill="#f16a8d"></path>
<path d="M621.194 74.7308C621.795 74.7308 622.283 74.215 622.283 73.5788C622.283 72.9425 621.795 72.4268 621.194 72.4268C620.592 72.4268 620.104 72.9425 620.104 73.5788C620.104 74.215 620.592 74.7308 621.194 74.7308Z" fill="#3F3F3F"></path>
<path d="M627.555 74.7308C628.156 74.7308 628.644 74.215 628.644 73.5788C628.644 72.9425 628.156 72.4268 627.555 72.4268C626.953 72.4268 626.466 72.9425 626.466 73.5788C626.466 74.215 626.953 74.7308 627.555 74.7308Z" fill="#3F3F3F"></path>
<path d="M636.321 90.7403H585.105C583.115 90.7403 581.502 89.0338 581.502 86.9287V86.3598C581.502 84.2546 583.115 82.5481 585.105 82.5481H636.321C638.311 82.5481 639.924 84.2546 639.924 86.3598V86.9287C639.924 89.0338 638.311 90.7403 636.321 90.7403Z" fill="#f16a8d"></path>
<path d="M592.858 192.884H583.669V202.604H592.858V192.884Z" fill="#4151f6"></path>
<path d="M607.825 192.884H598.636V202.604H607.825V192.884Z" fill="#4151f6"></path>
<path d="M622.792 192.884H613.603V202.604H622.792V192.884Z" fill="#4151f6"></path>
<path d="M637.758 192.884H628.569V202.604H637.758V192.884Z" fill="#4151f6"></path>
<path d="M587.817 145.811H584.375C582.788 145.811 581.502 144.45 581.502 142.772V139.131C581.502 137.452 582.788 136.091 584.375 136.091H587.817C589.404 136.091 590.691 137.452 590.691 139.131V142.772C590.691 144.45 589.404 145.811 587.817 145.811Z" fill="#4151f6"></path>
<path d="M637.051 145.81H633.609C632.022 145.81 630.735 144.45 630.735 142.771V139.13C630.735 137.451 632.022 136.09 633.609 136.09H637.051C638.638 136.09 639.924 137.451 639.924 139.13V142.771C639.924 144.45 638.638 145.81 637.051 145.81Z" fill="#4151f6"></path>
<path d="M624.973 145.81H621.531C619.944 145.81 618.657 144.45 618.657 142.771V139.13C618.657 137.451 619.944 136.09 621.531 136.09H624.973C626.56 136.09 627.846 137.451 627.846 139.13V142.771C627.846 144.45 626.56 145.81 624.973 145.81Z" fill="#4151f6"></path>
<path d="M587.817 188.863H584.375C582.788 188.863 581.502 187.502 581.502 185.823V182.182C581.502 180.504 582.788 179.143 584.375 179.143H587.817C589.404 179.143 590.691 180.504 590.691 182.182V185.823C590.691 187.502 589.404 188.863 587.817 188.863Z" fill="#4151f6"></path>
<path d="M637.051 188.863H633.609C632.022 188.863 630.735 187.502 630.735 185.823V182.182C630.735 180.503 632.022 179.143 633.609 179.143H637.051C638.638 179.143 639.924 180.503 639.924 182.182V185.823C639.924 187.502 638.638 188.863 637.051 188.863Z" fill="#4151f6"></path>
<path d="M624.973 188.863H621.531C619.944 188.863 618.657 187.502 618.657 185.823V182.182C618.657 180.503 619.944 179.143 621.531 179.143H624.973C626.56 179.143 627.846 180.503 627.846 182.182V185.823C627.846 187.502 626.56 188.863 624.973 188.863Z" fill="#4151f6"></path>
<path d="M639.924 175.123H581.502V154.043C581.502 151.723 583.28 149.842 585.474 149.842H635.952C638.146 149.842 639.924 151.723 639.924 154.043V175.123Z" fill="#4151f6"></path>
<path d="M635.952 133.035H585.474C583.28 133.035 581.502 131.153 581.502 128.833V101.054C581.502 98.7335 583.28 96.8523 585.474 96.8523H635.952C638.146 96.8523 639.924 98.7335 639.924 101.054V128.833C639.924 131.153 638.146 133.035 635.952 133.035Z" fill="#4151f6"></path>
<ellipse cx="665.775" cy="525.896" rx="31.1738" ry="1.88282" fill="#002B6C" fill-opacity="0.1"></ellipse>
<rect x="692.59" y="400.708" width="5.53649" height="15.7292" rx="1.19384" fill="#B0C1E1"></rect>
<rect x="633.234" y="420.122" width="5.53649" height="15.7292" rx="1.19384" fill="#B0C1E1"></rect>
<rect x="633.234" y="400.708" width="5.53649" height="15.7292" rx="1.19384" fill="#B0C1E1"></rect>
<rect x="696.95" y="370.258" width="129.934" height="62.3639" rx="9.5507" transform="rotate(90 696.95 370.258)" fill="#4151f6"></rect>
<rect x="694.256" y="372.662" width="125.125" height="56.9757" rx="9.0507" transform="rotate(90 694.256 372.662)" stroke="#78D2EE"></rect>
<circle cx="665.769" cy="486.586" r="4.57369" fill="#f16a8d"></circle>
<path d="M655.223 372.162H676.313V375.79C676.313 376.669 675.6 377.382 674.721 377.382H656.814C655.935 377.382 655.223 376.669 655.223 375.79V372.162Z" fill="#f16a8d"></path>
<path fill-rule="evenodd" clip-rule="evenodd" d="M269.368 300.271H87.7037C74.0629 300.271 63.0049 311.329 63.0049 324.969C63.0049 338.61 74.0629 349.668 87.7037 349.668H269.368C283.009 349.668 294.067 338.61 294.067 324.969C294.067 311.329 283.008 300.271 269.368 300.271ZM87.7037 299.271C73.5106 299.271 62.0049 310.776 62.0049 324.969C62.0049 339.162 73.5107 350.668 87.7037 350.668H269.368C283.561 350.668 295.067 339.162 295.067 324.969C295.067 310.776 283.561 299.271 269.368 299.271H87.7037Z" fill="#4151f6"></path>
<path fill-rule="evenodd" clip-rule="evenodd" d="M177.902 312.282C177.35 312.282 176.902 312.73 176.902 313.282V315.451C175.491 315.737 174.177 316.292 173.017 317.061L171.484 315.527C171.093 315.136 170.46 315.136 170.069 315.527L168.357 317.239C167.967 317.629 167.967 318.263 168.357 318.653L169.891 320.187C169.123 321.347 168.567 322.661 168.281 324.072H166.112C165.56 324.072 165.112 324.52 165.112 325.072V327.493C165.112 328.045 165.56 328.493 166.112 328.493H168.281C168.568 329.904 169.123 331.217 169.891 332.377L168.357 333.912C167.967 334.302 167.967 334.935 168.357 335.326L170.069 337.038C170.46 337.428 171.093 337.428 171.483 337.038L173.017 335.504C174.177 336.272 175.491 336.827 176.902 337.114V339.282C176.902 339.835 177.35 340.282 177.902 340.282H180.323C180.875 340.282 181.323 339.835 181.323 339.282V337.114C182.734 336.827 184.048 336.272 185.208 335.504L186.742 337.038C187.133 337.428 187.766 337.428 188.156 337.038L189.868 335.326C190.259 334.935 190.259 334.302 189.868 333.912L188.334 332.377C189.102 331.217 189.658 329.904 189.944 328.493H192.112C192.665 328.493 193.112 328.045 193.112 327.493V325.072C193.112 324.52 192.665 324.072 192.112 324.072H189.944C189.658 322.661 189.102 321.347 188.334 320.187L189.868 318.653C190.259 318.262 190.259 317.629 189.868 317.239L188.156 315.527C187.766 315.136 187.132 315.136 186.742 315.527L185.208 317.061C184.048 316.292 182.734 315.737 181.323 315.451V313.282C181.323 312.73 180.875 312.282 180.323 312.282H177.902ZM179.112 334.232C183.503 334.232 187.062 330.673 187.062 326.282C187.062 321.892 183.503 318.332 179.112 318.332C174.722 318.332 171.163 321.892 171.163 326.282C171.163 330.673 174.722 334.232 179.112 334.232Z" fill="#4151f6"></path>
<path fill-rule="evenodd" clip-rule="evenodd" d="M117.141 312.955L131.112 326.61L129.017 328.658L117.224 317.066L105.208 328.81L103.112 326.762L115.135 315.012L115.126 315.003L117.141 312.955ZM117.218 320.063L108.039 329.034V339.609H114.41V332.896H119.872V339.609H126.243V328.935L117.218 320.063ZM111.213 312.955H107.262V319.893L111.213 316.031V312.955Z" fill="#4151f6"></path>
<path d="M241.301 313.69L244.176 322.202L253.159 322.306C253.932 322.315 254.252 323.3 253.632 323.761L246.425 329.125L249.102 337.701C249.332 338.439 248.495 339.047 247.864 338.6L240.536 333.403L233.207 338.599C232.577 339.046 231.739 338.437 231.969 337.7L234.646 329.124L227.439 323.76C226.819 323.299 227.139 322.314 227.912 322.305L236.895 322.201L239.77 313.689C240.018 312.957 241.054 312.957 241.301 313.69Z" fill="#4151f6"></path>
<rect x="58.835" y="72.9521" width="239.402" height="210.318" rx="26.7248" fill="#B0C1E1"></rect>
<rect x="58.835" y="215.997" width="239.367" height="20.2573" fill="#f16a8d"></rect>
<path d="M59.4521 144.854V216.254H173.085L59.4521 144.854Z" fill="#4151f6"></path>
<path d="M176.049 87.0498L116.953 216.254H230.586L176.049 87.0498Z" fill="#4151f6"></path>
<path d="M116.762 117.681L75.0527 216.254H188.686L116.762 117.681Z" fill="#4151f6"></path>
<path d="M232.865 87.0498L173.77 216.254H287.402L232.865 87.0498Z" fill="#4151f6"></path>
<path d="M298.202 126.573L184.569 216.254H298.202V126.573Z" fill="#4151f6"></path>
<ellipse cx="178.536" cy="258.802" rx="80.9929" ry="2.17764" fill="black" fill-opacity="0.3"></ellipse>
<path d="M115.272 244.297C109.762 244.297 105.279 239.814 105.279 234.304V142.168C105.279 136.658 109.762 132.175 115.272 132.175H156.889C162.4 132.175 166.882 136.658 166.882 142.168V234.304C166.882 239.814 162.4 244.297 156.889 244.297H115.272Z" fill="#F2F2F2"></path>
<path d="M156.89 241.662H115.273C111.286 241.662 108.055 238.43 108.055 234.444V142.308C108.055 138.321 111.286 135.09 115.273 135.09H156.89C160.876 135.09 164.108 138.321 164.108 142.308V234.444C164.108 238.43 160.876 241.662 156.89 241.662Z" fill="#E6E6E6"></path>
<path d="M157.724 241.662H114.438C111.653 241.662 109.395 239.404 109.395 236.618V140.133C109.395 137.348 111.653 135.09 114.438 135.09H157.724C160.509 135.09 162.767 137.348 162.767 140.133V236.618C162.767 239.404 160.509 241.662 157.724 241.662Z" fill="white"></path>
<path d="M142.031 238.322H130.131C129.732 238.322 129.409 237.999 129.409 237.601C129.409 237.202 129.732 236.879 130.131 236.879H142.031C142.429 236.879 142.752 237.202 142.752 237.601C142.752 237.999 142.429 238.322 142.031 238.322Z" fill="#E6E6E6"></path>
<path d="M149.869 143.004H122.294C120.413 143.004 118.889 141.479 118.889 139.599V135.09H153.274V139.599C153.274 141.479 151.749 143.004 149.869 143.004Z" fill="#F2F2F2"></path>
<path d="M144.134 139.545C144.596 139.545 144.971 139.17 144.971 138.708C144.971 138.246 144.596 137.871 144.134 137.871C143.672 137.871 143.297 138.246 143.297 138.708C143.297 139.17 143.672 139.545 144.134 139.545Z" fill="#4151f6"></path>
<path d="M149.022 139.545C149.485 139.545 149.859 139.17 149.859 138.708C149.859 138.246 149.485 137.871 149.022 137.871C148.56 137.871 148.186 138.246 148.186 138.708C148.186 139.17 148.56 139.545 149.022 139.545Z" fill="#4151f6"></path>
<path d="M155.759 151.175H116.403C114.874 151.175 113.634 149.935 113.634 148.406V147.993C113.634 146.463 114.874 145.224 116.403 145.224H155.759C157.289 145.224 158.528 146.463 158.528 147.993V148.406C158.528 149.935 157.289 151.175 155.759 151.175Z" fill="#f16a8d"></path>
<path d="M122.359 225.378H115.298V232.439H122.359V225.378Z" fill="#B0C1E1"></path>
<path d="M133.86 225.377H126.799V232.438H133.86V225.377Z" fill="#B0C1E1"></path>
<path d="M145.362 225.377H138.301V232.438H145.362V225.377Z" fill="#B0C1E1"></path>
<path d="M156.863 225.377H149.802V232.438H156.863V225.377Z" fill="#B0C1E1"></path>
<path d="M118.486 191.181H115.841C114.621 191.181 113.633 190.193 113.633 188.973V186.328C113.633 185.109 114.621 184.12 115.841 184.12H118.486C119.705 184.12 120.694 185.109 120.694 186.328V188.973C120.694 190.193 119.705 191.181 118.486 191.181Z" fill="#f16a8d"></path>
<path d="M156.319 191.181H153.674C152.454 191.181 151.466 190.193 151.466 188.973V186.328C151.466 185.109 152.454 184.12 153.674 184.12H156.319C157.538 184.12 158.527 185.109 158.527 186.328V188.973C158.527 190.193 157.538 191.181 156.319 191.181Z" fill="#f16a8d"></path>
<path d="M147.038 191.181H144.393C143.173 191.181 142.185 190.193 142.185 188.973V186.328C142.185 185.109 143.173 184.12 144.393 184.12H147.038C148.257 184.12 149.246 185.109 149.246 186.328V188.973C149.246 190.193 148.257 191.181 147.038 191.181Z" fill="#f16a8d"></path>
<path d="M118.486 222.458H115.841C114.621 222.458 113.633 221.469 113.633 220.249V217.604C113.633 216.385 114.621 215.396 115.841 215.396H118.486C119.705 215.396 120.694 216.385 120.694 217.604V220.249C120.694 221.469 119.705 222.458 118.486 222.458Z" fill="#f16a8d"></path>
<path d="M156.319 222.457H153.674C152.454 222.457 151.466 221.468 151.466 220.249V217.604C151.466 216.384 152.454 215.396 153.674 215.396H156.319C157.538 215.396 158.527 216.384 158.527 217.604V220.249C158.527 221.468 157.538 222.457 156.319 222.457Z" fill="#f16a8d"></path>
<path d="M147.038 222.457H144.393C143.173 222.457 142.185 221.468 142.185 220.249V217.604C142.185 216.384 143.173 215.396 144.393 215.396H147.038C148.257 215.396 149.246 216.384 149.246 217.604V220.249C149.246 221.468 148.257 222.457 147.038 222.457Z" fill="#f16a8d"></path>
<path d="M158.527 212.474H113.633V197.161C113.633 195.475 114.999 194.109 116.685 194.109H155.475C157.161 194.109 158.527 195.475 158.527 197.161V212.474Z" fill="#4151f6"></path>
<path d="M155.476 181.899H116.686C115 181.899 113.634 180.533 113.634 178.847V158.667C113.634 156.981 115 155.614 116.686 155.614H155.476C157.162 155.614 158.528 156.981 158.528 158.667V178.847C158.528 180.533 157.162 181.899 155.476 181.899Z" fill="#4151f6"></path>
<path d="M200.182 244.297C194.672 244.297 190.189 238.913 190.189 232.296V121.653C190.189 115.036 194.672 109.652 200.182 109.652H241.8C247.31 109.652 251.793 115.036 251.793 121.653V232.296C251.793 238.913 247.31 244.297 241.8 244.297H200.182Z" fill="#F2F2F2"></path>
<path d="M241.8 241.132H200.183C196.196 241.132 192.965 237.251 192.965 232.464V121.82C192.965 117.033 196.196 113.152 200.183 113.152H241.8C245.786 113.152 249.018 117.033 249.018 121.82V232.464C249.018 237.251 245.786 241.132 241.8 241.132Z" fill="#E6E6E6"></path>
<path d="M242.635 241.132H199.349C196.564 241.132 194.306 238.42 194.306 235.075V119.209C194.306 115.864 196.564 113.152 199.349 113.152H242.635C245.42 113.152 247.678 115.864 247.678 119.209V235.075C247.678 238.42 245.42 241.132 242.635 241.132Z" fill="white"></path>
<path d="M226.942 237.122H215.042C214.643 237.122 214.32 236.734 214.32 236.255C214.32 235.777 214.643 235.389 215.042 235.389H226.942C227.34 235.389 227.664 235.777 227.664 236.255C227.664 236.734 227.34 237.122 226.942 237.122Z" fill="#E6E6E6"></path>
<path d="M234.779 122.656H207.204C205.323 122.656 203.799 120.825 203.799 118.567V113.152H238.184V118.567C238.184 120.825 236.66 122.656 234.779 122.656Z" fill="#F2F2F2"></path>
<path d="M229.045 118.503C229.507 118.503 229.882 118.053 229.882 117.498C229.882 116.943 229.507 116.493 229.045 116.493C228.583 116.493 228.208 116.943 228.208 117.498C228.208 118.053 228.583 118.503 229.045 118.503Z" fill="#4151f6"></path>
<path d="M233.933 118.503C234.395 118.503 234.77 118.053 234.77 117.498C234.77 116.943 234.395 116.493 233.933 116.493C233.47 116.493 233.096 116.943 233.096 117.498C233.096 118.053 233.47 118.503 233.933 118.503Z" fill="#4151f6"></path>
<rect x="214.93" y="128.318" width="30.1689" height="16.9055" rx="7.37235" fill="#4151f6"></rect>
<rect x="214.93" y="164.265" width="30.1689" height="16.9055" rx="7.37235" fill="#4151f6"></rect>
<rect x="197.494" y="150.116" width="30.1689" height="9.25712" rx="4.62856" fill="#f16a8d"></rect>
<rect x="197.494" y="186.063" width="30.1689" height="16.9055" rx="7.37235" fill="#f16a8d"></rect>
<rect x="214.93" y="209.669" width="30.1689" height="9.25712" rx="4.62856" fill="#4151f6"></rect>
<circle cx="88.7598" cy="101.478" r="15.0156" fill="#4151f6"></circle>
<path fill-rule="evenodd" clip-rule="evenodd" d="M114.756 513.497C110.655 509.396 104.007 509.396 99.9066 513.497L97.8082 515.595C93.3171 520.086 86.0357 520.086 81.5447 515.595L79.4974 513.548C75.3779 509.428 68.6921 509.45 64.5997 513.596L59.6908 518.57C59.4968 518.767 59.1803 518.769 58.9837 518.575C58.7872 518.381 58.7851 518.064 58.9791 517.868L63.8879 512.894C68.3701 508.353 75.6927 508.329 80.2045 512.841L82.2518 514.888C86.3523 518.988 93.0005 518.988 97.101 514.888L99.1995 512.789C103.691 508.298 110.972 508.298 115.463 512.789L117.561 514.888C121.662 518.988 128.31 518.988 132.411 514.888L132.864 514.435C133.242 514.056 133.592 513.649 133.908 513.217L135.938 510.446C136.102 510.224 136.414 510.175 136.637 510.339C136.86 510.502 136.908 510.815 136.745 511.038L134.715 513.808C134.368 514.281 133.986 514.727 133.571 515.142L133.118 515.595C128.627 520.086 121.345 520.086 116.854 515.595L114.756 513.497Z" fill="#3F3F3F"></path>
<path fill-rule="evenodd" clip-rule="evenodd" d="M229.496 422.52C225.396 418.42 218.747 418.42 214.647 422.52L212.548 424.619C208.057 429.11 200.776 429.11 196.285 424.619L194.238 422.571C190.118 418.452 183.432 418.474 179.34 422.62L174.431 427.594C174.237 427.79 173.921 427.792 173.724 427.598C173.527 427.404 173.525 427.088 173.719 426.891L178.628 421.918C183.11 417.376 190.433 417.352 194.945 421.864L196.992 423.912C201.093 428.012 207.741 428.012 211.841 423.912L213.94 421.813C218.431 417.322 225.712 417.322 230.203 421.813L232.302 423.912C236.402 428.012 243.05 428.012 247.151 423.912L247.604 423.459C247.983 423.08 248.332 422.672 248.649 422.24L250.679 419.47C250.842 419.247 251.155 419.199 251.377 419.362C251.6 419.526 251.648 419.838 251.485 420.061L249.455 422.831C249.108 423.305 248.726 423.751 248.311 424.166L247.858 424.619C243.367 429.11 236.085 429.11 231.594 424.619L229.496 422.52Z" fill="#3F3F3F"></path>
<path fill-rule="evenodd" clip-rule="evenodd" d="M332.166 96.0112C328.065 91.9107 321.417 91.9107 317.317 96.0112L315.218 98.1096C310.727 102.601 303.446 102.601 298.955 98.1096L296.908 96.0623C292.788 91.9428 286.102 91.9647 282.01 96.1111L277.101 101.085C276.907 101.281 276.59 101.283 276.394 101.089C276.197 100.895 276.195 100.579 276.389 100.382L281.298 95.4086C285.78 90.8673 293.103 90.8433 297.615 95.3552L299.662 97.4025C303.762 101.503 310.411 101.503 314.511 97.4025L316.61 95.3041C321.101 90.813 328.382 90.813 332.873 95.3041L334.972 97.4025C339.072 101.503 345.72 101.503 349.821 97.4025L350.274 96.9495C350.653 96.5706 351.002 96.1633 351.319 95.7312L353.348 92.9611C353.512 92.7383 353.825 92.6901 354.047 92.8533C354.27 93.0165 354.318 93.3294 354.155 93.5522L352.125 96.3222C351.778 96.7956 351.396 97.2417 350.981 97.6566L350.528 98.1096C346.037 102.601 338.755 102.601 334.264 98.1096L332.166 96.0112Z" fill="#4151f6"></path>
</svg>
