<svg width="600" height="450" viewBox="0 0 800 600" fill="none" xmlns="http://www.w3.org/2000/svg" data-reactroot="">
<path opacity="0.4" d="M726.867 508.91C711.938 525.601 359.57 517.826 300.79 518.552C150.989 426.287 138.86 283.017 169.857 204.022C183.852 168.36 223.557 130.417 270.933 122.435C329.091 112.586 380.303 153.743 403.525 172.507C475.264 230.354 474.745 290.585 514.761 293.902C558.717 297.531 573.852 219.572 636.883 215.529C675.862 213.041 703.645 240.409 707.066 243.83C739.618 276.901 743.143 332.778 721.476 365.226C700.224 397.052 658.549 400.681 660.104 412.914C661.452 424.524 705.2 417.06 725.934 443.496C739.722 461.43 741.069 493.153 726.867 508.91Z" fill="#B5CDFB"></path>
<path opacity="0.5" d="M580.589 290.481L511.546 267.985L512.479 331.43L581.522 353.926L580.589 290.481Z" fill="#FEEFF0"></path>
<path d="M719.817 489.213L713.804 82.2107C713.804 81.174 713.079 80.0337 712.249 79.7227L552.185 27.7849C551.356 27.4739 550.63 28.0959 550.63 29.2362L551.874 117.458L659.378 153.224C660.208 153.535 660.83 154.571 660.83 155.608L665.806 490.768L718.469 508.08C719.299 508.391 720.024 507.769 720.024 506.629L719.817 489.213Z" fill="none" stroke="#221b38" stroke-width="1"></path>
<path d="M549.698 199.977V200.91L549.802 201.014C550.009 201.325 550.009 201.843 549.802 202.051L547.832 204.02C548.247 204.642 548.765 205.057 549.387 205.264C550.631 205.679 551.564 204.746 551.564 203.295C551.668 201.843 550.838 200.496 549.698 199.977ZM549.18 199.77C548.143 199.563 547.314 200.496 547.314 201.843C547.314 202.051 547.314 202.258 547.417 202.569L549.076 200.807L549.18 200.703V199.77Z" fill="#4151f6"></path>
<path d="M548.763 158.511C548.452 158.407 548.245 158.614 548.245 159.029L548.349 164.42C548.349 164.835 548.66 165.146 548.971 165.249C549.282 165.353 549.489 165.146 549.489 164.731L549.385 159.34C549.385 159.029 549.178 158.614 548.763 158.511Z" fill="#4151f6"></path>
<path d="M550.007 239.785C549.696 239.682 549.488 239.889 549.488 240.304L549.592 245.694C549.592 246.109 549.903 246.42 550.214 246.524C550.525 246.627 550.732 246.42 550.732 246.005L550.629 240.615C550.629 240.304 550.318 239.889 550.007 239.785Z" fill="#4151f6"></path>
<path d="M573.85 179.66C573.746 179.66 573.746 179.66 573.642 179.66L570.636 182.459C570.532 182.563 570.532 182.77 570.636 182.978C570.74 183.081 570.74 183.081 570.843 183.185C570.947 183.185 570.947 183.185 571.051 183.185L574.057 180.386C574.161 180.282 574.161 180.075 574.057 179.867C573.953 179.764 573.953 179.66 573.85 179.66Z" fill="#4151f6"></path>
<path d="M528.134 221.957C528.031 221.957 528.031 221.957 527.927 221.957L524.921 224.756C524.817 224.86 524.817 225.067 524.921 225.274C525.024 225.378 525.024 225.378 525.128 225.482C525.232 225.482 525.232 225.482 525.335 225.482L528.342 222.683C528.445 222.579 528.445 222.372 528.342 222.164C528.238 222.061 528.134 221.957 528.134 221.957Z" fill="#4151f6"></path>
<path d="M571.572 236.054C571.468 236.054 571.468 236.054 571.365 236.054C571.261 236.157 571.261 236.365 571.365 236.572L574.475 241.341C574.578 241.444 574.578 241.444 574.682 241.548C574.786 241.548 574.786 241.548 574.889 241.548C574.993 241.444 574.993 241.237 574.889 241.03L571.779 236.261C571.779 236.157 571.676 236.157 571.572 236.054Z" fill="#4151f6"></path>
<path d="M524.192 163.486C524.089 163.486 524.089 163.486 523.985 163.486C523.881 163.59 523.881 163.797 523.985 164.005L527.095 168.773C527.199 168.877 527.199 168.877 527.302 168.981C527.406 168.981 527.406 168.981 527.51 168.981C527.613 168.877 527.613 168.67 527.51 168.462L524.4 163.694C524.296 163.59 524.192 163.486 524.192 163.486Z" fill="#4151f6"></path>
<path d="M584.53 213.246L580.176 211.795C579.865 211.691 579.657 211.899 579.657 212.313C579.657 212.728 579.968 213.143 580.279 213.246L584.633 214.698C584.944 214.801 585.152 214.594 585.152 214.179C585.152 213.765 584.841 213.35 584.53 213.246Z" fill="#4151f6"></path>
<path d="M518.492 191.893L514.553 190.649C514.242 190.545 514.035 190.753 514.035 191.064C514.035 191.375 514.242 191.789 514.553 191.893L518.492 193.137C518.803 193.241 519.011 193.033 519.011 192.722C519.011 192.308 518.7 191.893 518.492 191.893Z" fill="#4151f6"></path>
<path d="M548.969 171.573C548.762 171.573 548.658 171.677 548.658 171.781L549.073 199.667V200.6C549.176 200.6 549.28 200.6 549.384 200.6C549.487 200.6 549.591 200.704 549.695 200.808V199.875L549.28 171.988C549.28 171.781 549.176 171.573 548.969 171.573Z" fill="#4151f6"></path>
<path d="M549.384 200.705C549.28 200.705 549.177 200.705 549.073 200.705C549.073 200.705 548.969 200.705 548.969 200.809L547.31 202.571L533.004 217.085C532.797 217.292 532.797 217.707 533.004 218.121C533.108 218.329 533.212 218.432 533.419 218.432C533.523 218.432 533.73 218.432 533.834 218.329L547.933 204.022L549.902 202.053C550.11 201.845 550.11 201.431 549.902 201.016L549.799 200.912C549.591 200.809 549.488 200.705 549.384 200.705Z" fill="#4151f6"></path>
<path d="M653.988 454.069L513.621 408.455L514.14 444.117V442.769L654.507 488.383L653.988 454.069Z" fill="#4151f6"></path>
<path d="M628.174 180.176L600.909 171.261L601.013 178.829L628.278 187.744L628.174 180.176Z" fill="#4151f6"></path>
<path d="M650.772 234.293L626.203 226.311L626.618 250.984L651.187 258.966L650.772 234.293Z" fill="#4151f6"></path>
<path d="M540.469 289.965C530.517 286.751 522.638 294.008 522.742 306.344C522.949 318.577 531.139 331.225 541.091 334.438C551.044 337.652 558.922 330.395 558.819 318.059C558.715 305.826 550.422 293.282 540.469 289.965Z" fill="#B5CDFB"></path>
<path d="M395.022 450.442C387.973 454.381 379.679 455.625 371.801 462.156C368.38 465.059 364.958 468.999 361.848 474.7C361.848 474.7 353.762 485.171 342.462 498.959C342.462 498.959 342.462 498.959 342.462 499.062C322.454 523.632 292.702 558.672 281.92 564.166C274.352 568.002 256.418 562.611 239.001 555.458C217.646 546.75 196.912 535.346 196.912 535.346C185.923 530.681 178.874 526.12 178.77 519.589C178.666 513.68 184.472 506.319 198.467 495.849C218.579 481.024 240.764 464.644 258.491 451.686C258.595 451.686 258.595 451.582 258.595 451.582C274.249 440.282 286.378 431.471 290.732 428.775C301.617 421.933 312.606 404.413 323.387 393.217C325.876 390.625 328.26 388.448 330.748 386.686C333.754 384.613 336.761 383.265 339.767 383.161C339.974 383.161 340.182 383.161 340.389 383.161C342.359 383.265 344.743 384.301 347.542 385.857C347.542 385.857 347.542 385.857 347.646 385.857C349.719 387.101 351.896 388.656 354.177 390.522C354.177 390.522 354.281 390.625 354.592 390.833C360.604 395.705 367.239 402.547 373.459 409.804C373.563 409.908 373.667 410.011 373.77 410.115C378.643 415.817 383.204 421.829 387.04 427.428C387.454 428.05 387.765 428.464 387.869 428.672C389.735 431.574 391.498 434.373 392.845 436.861C396.37 443.911 397.614 448.991 395.022 450.442Z" fill="#4151f6"></path>
<path d="M214.846 150.839H82.6691V159.029H214.846V150.839Z" fill="#4151f6"></path>
<path d="M547.001 382.435L513.101 371.343L513.516 405.657L547.519 416.75L547.001 382.435Z" fill="#FAECC1"></path>
<path d="M214.846 166.183H82.6691V174.372H214.846V166.183Z" fill="#4151f6"></path>
<path d="M70.8509 150.839H55.7153V167.218H70.8509V150.839Z" fill="#4151f6"></path>
<path d="M139.482 243.935H77.9027V249.533H139.482V243.935Z" fill="#4151f6"></path>
<path d="M194.011 275.035H143.214V316.191H194.011V275.035Z" fill="#4151f6"></path>
<path d="M418.66 86.9821H354.179C353.557 86.9821 353.142 86.4637 353.142 85.8417V49.2468C353.142 48.6248 353.66 48.1064 354.179 48.1064H445.511C446.133 48.1064 446.547 48.6248 446.547 49.2468V85.9454C446.547 86.5674 446.029 87.0857 445.511 87.0857H432.034" fill="#4151f6"></path>
<path d="M744.801 534.205H710.28V543.535H744.801V534.205Z" fill="#4151f6"></path>
<path d="M666.946 559.708L660.933 154.779C660.933 153.742 660.208 152.602 659.378 152.395L537.568 112.793L499.314 100.353C498.485 100.042 497.759 100.664 497.759 101.805L501.388 345.529L501.699 368.543L503.979 524.357C503.979 525.393 504.705 526.534 505.535 526.845L665.598 578.886C666.428 579.197 667.153 578.575 667.153 577.435L666.946 559.708ZM651.189 258.966L651.5 283.639L626.93 275.656L602.361 267.674L602.05 243.001L601.739 218.328L626.308 226.31L650.878 234.293L651.189 258.966ZM650.67 226.207L601.531 210.242L601.428 202.674L650.567 218.639L650.67 226.207ZM601.324 194.588L601.22 187.02L614.49 191.374L614.594 198.942L601.324 194.588ZM628.174 180.178L628.278 187.746L601.013 178.934L600.909 171.366L628.174 180.178ZM582.353 133.631C583.078 133.838 583.7 134.771 583.7 135.6C583.7 136.43 583.182 136.948 582.456 136.741C581.731 136.533 581.109 135.6 581.109 134.771C581.109 133.942 581.627 133.423 582.353 133.631ZM576.547 131.765C577.273 131.972 577.895 132.905 577.895 133.734C577.895 134.667 577.377 135.186 576.651 134.875C575.925 134.667 575.303 133.734 575.303 132.905C575.2 132.076 575.822 131.557 576.547 131.765ZM548.764 152.913C570.949 160.17 589.299 188.264 589.713 215.529C590.128 242.897 572.401 259.277 550.216 252.02C528.031 244.763 509.681 216.669 509.267 189.404C508.852 162.14 526.579 145.76 548.764 152.913ZM532.488 490.457L527.305 488.798C526.268 488.487 525.439 487.14 525.335 485.896L525.232 479.572C525.232 478.328 526.061 477.499 527.098 477.81L532.281 479.468C533.318 479.779 534.147 481.127 534.251 482.371L534.354 488.695C534.354 489.939 533.525 490.768 532.488 490.457ZM559.96 499.373L554.777 497.714C553.74 497.403 552.911 496.055 552.807 494.811L552.704 488.487C552.704 487.243 553.533 486.414 554.57 486.725L559.753 488.384C560.79 488.695 561.619 490.042 561.723 491.286L561.826 497.61C561.93 498.958 560.997 499.684 559.96 499.373ZM587.536 508.288L582.353 506.629C581.316 506.318 580.487 504.971 580.383 503.727L580.279 497.403C580.279 496.159 581.109 495.329 582.145 495.641L587.329 497.299C588.366 497.61 589.195 498.958 589.299 500.202L589.402 506.526C589.402 507.873 588.573 508.599 587.536 508.288ZM615.008 517.204L609.825 515.545C608.788 515.234 607.959 513.886 607.855 512.642L607.752 506.318C607.752 505.074 608.581 504.245 609.618 504.556L614.801 506.215C615.838 506.526 616.667 507.873 616.771 509.117L616.874 515.441C616.874 516.789 616.045 517.618 615.008 517.204ZM642.584 526.223L637.401 524.564C636.364 524.253 635.535 522.905 635.431 521.661L635.327 515.337C635.327 514.093 636.157 513.264 637.193 513.575L642.377 515.234C643.413 515.545 644.243 516.893 644.243 518.137L644.346 524.46C644.45 525.704 643.621 526.534 642.584 526.223ZM653.988 451.27L656.579 452.1V454.899L653.988 454.07L654.506 488.384L657.098 489.213V492.012L654.506 491.183L654.61 495.33C654.61 496.366 653.988 496.988 653.158 496.677L515.694 451.996C514.865 451.685 514.139 450.648 514.139 449.612L513.517 408.352L510.096 407.211V404.412L513.517 405.553L512.999 371.239L509.578 370.098V367.299L512.999 368.44L512.791 355.792L512.48 334.125L512.066 334.022L509.059 333.089V330.29L512.48 331.43L511.547 267.985L508.126 266.845V264.046L511.547 265.186L511.444 260.521C511.444 259.484 512.066 258.862 512.895 259.173L650.359 303.854C651.189 304.165 651.914 305.202 651.914 306.239L652.018 310.904L654.61 311.733V314.532L652.018 313.703L652.951 377.148L659.275 379.221V382.02L652.951 379.947L653.988 451.27Z" fill="none" stroke="#221b38" stroke-width="1"></path>
<path fill-rule="evenodd" clip-rule="evenodd" d="M184.161 108.44H82.6696V116.63H184.161V108.44ZM548.765 154.365C527.202 147.316 509.993 163.177 510.408 189.82C510.823 216.463 528.55 243.728 550.217 250.673C571.78 257.723 588.989 241.862 588.574 215.219C588.159 188.68 570.328 161.415 548.765 154.365ZM509.268 189.405C508.853 162.141 526.58 145.761 548.765 152.914C570.95 160.171 589.3 188.265 589.714 215.53C590.129 242.795 572.402 259.278 550.217 252.021C528.032 244.868 509.682 216.774 509.268 189.405ZM492.678 376.835C492.684 376.864 492.69 376.893 492.696 376.922C492.704 376.959 492.712 376.996 492.719 377.033C492.81 377.01 492.9 376.984 492.991 376.939C494.235 376.524 495.168 376.006 495.687 375.384C500.559 369.889 515.487 368.956 514.14 377.561C513.829 379.323 513.207 381.085 512.274 382.641C508.542 388.861 500.248 393.94 491.229 396.532C486.234 397.998 480.187 401.308 473.748 404.831L473.748 404.831C465.62 409.279 456.869 414.067 448.829 415.918C442.09 417.473 432.345 417.369 423.119 415.296L423.114 415.295L423.013 415.296C419.488 415.296 415.86 415.504 412.128 415.918C407.67 416.333 403.109 417.266 398.755 418.717C394.504 420.169 390.669 423.279 387.04 427.425C387.001 427.465 386.976 427.505 386.955 427.538C386.921 427.593 386.897 427.633 386.833 427.633C384.868 420.725 364.382 400.289 354.385 390.934L354.386 390.933C356.355 389.171 358.325 387.409 360.294 385.543C364.13 382.019 367.758 378.39 371.075 374.762C372.527 373.207 373.874 371.548 375.118 369.889C379.887 363.566 383.723 356.413 386.004 351.748C387.662 348.534 390.254 345.942 393.468 344.283C397.779 342.151 401.961 337.269 406.379 332.111C411.628 325.983 417.209 319.466 423.739 316.708C427.056 316.397 431.514 316.811 436.386 317.537C437.06 317.641 437.345 318.029 437.63 318.418C437.915 318.807 438.201 319.196 438.874 319.299C439.758 319.447 441.013 319.361 442.288 319.275L442.288 319.275C443.706 319.179 445.149 319.081 446.131 319.299C453.595 320.854 461.474 322.824 468.005 324.586L468.076 324.606C469.681 324.113 471.475 323.558 473.399 322.962L473.399 322.962L473.4 322.961C485.348 319.26 502.301 314.009 510.097 312.768C513.833 312.174 517.378 309.771 520.597 307.589C525.237 304.444 529.197 301.759 532.074 305.615C536.947 312.146 521.811 325.209 512.896 323.135C508.749 327.386 504.498 329.252 499.004 330.185C497.675 331.388 496.229 332.792 494.687 334.29C493.104 335.827 491.421 337.462 489.663 339.074C492.607 348.077 492.622 360.187 492.634 370.255C492.637 372.578 492.64 374.793 492.678 376.835ZM477.232 351.54C477.232 351.54 478.994 366.883 480.86 378.286C478.197 378.284 475.433 378.18 472.569 377.975L472.461 377.975L472.359 377.975C472.449 376.662 472.53 375.358 472.609 374.071L472.61 374.06L472.61 374.057V374.056C472.807 370.881 472.997 367.818 473.292 365.017C474.122 356.205 477.232 351.54 477.232 351.54ZM82.6696 123.784H184.161V131.974H82.6696V123.784ZM128.701 275.035H77.9033V365.537H128.701V275.035ZM32.7023 474.908H107.343V516.064H32.7023V474.908ZM306.046 183.806H342.33V159.548H306.046V183.806ZM296.814 183.806H260.53V159.548H296.814V183.806ZM260.581 154.909H342.375V150.14H260.581V154.909ZM342.33 201.855H306.046V197.087H342.33V201.855ZM260.53 201.855H296.814V197.087H260.53V201.855ZM342.379 239.824H260.585V215.565L342.379 215.565V239.824ZM260.585 210.926H342.379V206.158H260.585V210.926ZM342.33 193.582H306.046V191.198H342.33V193.582ZM260.53 193.582H296.814V191.198H260.53V193.582ZM296.814 146.247H260.53V143.863H296.814V146.247Z" fill="none" stroke="#221b38" stroke-width="1"></path>
<path fill-rule="evenodd" clip-rule="evenodd" d="M33.5845 392.439H108.226V467.081H33.5845V392.439ZM35.1396 393.994V465.526H106.671V393.994H35.1396Z" fill="#4151f6"></path>
<path fill-rule="evenodd" clip-rule="evenodd" d="M42.2404 208.946H228.429V210.501H42.2404V208.946Z" fill="#4151f6"></path>
<path d="M26.7935 179.556V75.3693C26.7935 66.8685 33.6356 60.0264 42.1364 60.0264H228.428C236.929 60.0264 243.771 66.8685 243.771 75.3693V179.556" stroke="#161616" stroke-width="1.5" stroke-miterlimit="10" stroke-linecap="round"></path>
<path opacity="0.36" d="M692.448 524.979L686.539 117.977C686.539 116.941 685.813 115.8 684.984 115.593L524.816 63.5515C523.987 63.2405 523.261 63.8625 523.261 65.0028L523.883 108.44L660.415 154.261L666.427 533.065C666.427 534.102 691.1 544.054 691.1 544.054C691.93 544.365 692.655 543.743 692.655 542.603L692.448 524.979Z" fill="#4151f6"></path>
<path d="M550.11 246.526C549.799 246.422 549.592 246.007 549.488 245.696L549.385 240.305C549.385 239.891 549.592 239.683 549.903 239.787C550.214 239.891 550.525 240.305 550.525 240.616L550.629 246.007C550.629 246.422 550.421 246.629 550.11 246.526ZM525.126 225.481C525.023 225.481 525.023 225.377 524.919 225.274C524.815 225.066 524.815 224.859 524.919 224.755L527.925 221.956C528.029 221.956 528.029 221.853 528.133 221.956C528.236 221.956 528.236 222.06 528.34 222.164C528.444 222.371 528.444 222.578 528.34 222.682L525.334 225.481C525.23 225.481 525.126 225.481 525.126 225.481ZM574.783 241.549C574.68 241.549 574.68 241.446 574.576 241.342L571.466 236.573C571.362 236.366 571.362 236.159 571.466 236.055C571.57 236.055 571.57 235.951 571.673 236.055C571.777 236.055 571.777 236.159 571.881 236.262L574.991 241.031C575.094 241.238 575.094 241.446 574.991 241.549C574.887 241.549 574.783 241.653 574.783 241.549ZM514.345 191.789C514.034 191.685 513.826 191.27 513.723 190.856C513.723 190.441 513.93 190.234 514.241 190.337L518.595 191.789C518.906 191.892 519.114 192.307 519.217 192.618C519.217 193.033 519.01 193.24 518.699 193.136L514.345 191.789ZM580.278 213.248C579.967 213.144 579.76 212.73 579.656 212.315C579.656 211.9 579.863 211.693 580.174 211.797L584.528 213.248C584.839 213.352 585.047 213.766 585.15 214.077C585.15 214.492 584.943 214.699 584.632 214.596L580.278 213.248ZM555.501 207.235C554.879 207.028 554.464 206.302 554.361 205.577V202.778C554.361 202.052 554.775 201.637 555.397 201.845L566.697 205.473C567.319 205.68 567.734 206.406 567.838 207.132V209.931C567.838 210.656 567.423 211.071 566.801 210.864L555.501 207.235ZM527.303 168.982C527.2 168.982 527.2 168.878 527.096 168.774L523.986 164.006C523.882 163.798 523.882 163.591 523.986 163.487C524.09 163.487 524.09 163.384 524.193 163.487C524.297 163.487 524.297 163.591 524.401 163.695L527.511 168.463C527.614 168.671 527.614 168.878 527.511 168.982C527.407 168.982 527.407 168.982 527.303 168.982ZM549.177 199.771L548.763 171.884C548.763 171.677 548.866 171.573 549.074 171.677C549.281 171.677 549.385 171.884 549.385 172.092L549.799 199.979C550.836 200.497 551.769 201.948 551.769 203.296C551.769 204.747 550.836 205.68 549.592 205.266C548.97 205.058 548.452 204.644 548.037 204.022L533.938 218.328C533.834 218.431 533.627 218.431 533.523 218.431C533.42 218.431 533.212 218.328 533.109 218.12C532.901 217.809 532.901 217.291 533.109 217.084L547.415 202.57C547.415 202.363 547.311 202.156 547.311 201.845C547.208 200.393 548.037 199.564 549.177 199.771ZM570.844 183.081C570.74 183.081 570.74 182.977 570.637 182.873C570.533 182.666 570.533 182.459 570.637 182.355L573.643 179.556C573.747 179.556 573.747 179.452 573.85 179.556C573.954 179.556 573.954 179.66 574.058 179.763C574.161 179.971 574.161 180.178 574.058 180.282L571.051 183.081C570.948 183.184 570.948 183.184 570.844 183.081ZM548.866 165.25C548.555 165.146 548.348 164.731 548.244 164.42L548.141 159.03C548.141 158.615 548.348 158.408 548.659 158.511C548.97 158.615 549.281 159.03 549.281 159.341L549.385 164.731C549.488 165.146 549.177 165.353 548.866 165.25ZM548.763 154.364C527.2 147.315 509.991 163.28 510.405 189.819C510.82 216.462 528.651 243.727 550.214 250.672C571.777 257.722 588.986 241.757 588.571 215.218C588.157 188.575 570.326 161.414 548.763 154.364Z" fill="#FEEFF0"></path>
<path d="M566.802 205.474L555.502 201.845C554.88 201.638 554.465 202.053 554.465 202.778V205.577C554.465 206.303 554.984 207.029 555.606 207.236L566.905 210.865C567.527 211.072 567.942 210.657 567.942 209.931V207.132C567.838 206.407 567.424 205.681 566.802 205.474Z" fill="#FBD8CB"></path>
<path d="M513.62 408.456L514.242 449.716C514.242 450.752 514.968 451.789 515.797 452.1L653.261 496.781C654.09 497.092 654.712 496.47 654.712 495.433L654.609 491.287L514.138 445.673V444.325L513.62 408.456ZM650.358 303.751L512.894 259.07C512.065 258.759 511.443 259.381 511.443 260.417L511.547 265.082L652.017 310.696L651.913 306.031C651.81 305.098 651.188 304.062 650.358 303.751Z" fill="#FBEFCB"></path>
<path d="M576.443 131.765C575.717 131.558 575.199 132.076 575.199 132.906C575.199 133.735 575.821 134.668 576.547 134.875C577.272 135.083 577.791 134.564 577.791 133.735C577.791 132.906 577.169 131.973 576.443 131.765Z" fill="#FAE9B8"></path>
<path d="M582.351 133.631C581.625 133.423 581.107 133.942 581.107 134.771C581.107 135.6 581.729 136.533 582.455 136.741C583.18 136.948 583.699 136.43 583.699 135.6C583.699 134.771 583.077 133.942 582.351 133.631Z" fill="#FAE9B8"></path>
<path d="M652.95 379.844L583.907 357.451L584.944 428.879L653.987 451.271L652.95 379.844Z" fill="#B5CDFB"></path>
<path d="M582.145 393.838L549.282 383.16L549.8 417.474L582.663 428.152L582.145 393.838Z" fill="#FEEFF0"></path>
<path d="M546.483 345.322L512.479 334.229L512.998 368.544L547.001 379.636L546.483 345.322Z" fill="#B5CDFB"></path>
<path d="M532.281 479.365L527.098 477.706C526.061 477.395 525.232 478.121 525.232 479.469L525.335 485.792C525.335 487.036 526.268 488.384 527.305 488.695L532.488 490.354C533.525 490.665 534.354 489.939 534.354 488.591L534.251 482.268C534.251 481.024 533.421 479.676 532.281 479.365Z" fill="#1F818C"></path>
<path d="M559.856 488.281L554.673 486.622C553.636 486.311 552.807 487.037 552.807 488.385L552.911 494.708C552.911 495.952 553.844 497.3 554.88 497.611L560.064 499.27C561.1 499.581 561.93 498.855 561.93 497.507L561.826 491.184C561.722 489.94 560.893 488.696 559.856 488.281Z" fill="#1F818C"></path>
<path d="M587.328 497.299L582.145 495.641C581.108 495.33 580.279 496.055 580.279 497.403L580.383 503.727C580.383 504.971 581.316 506.319 582.352 506.63L587.536 508.288C588.572 508.599 589.402 507.874 589.402 506.526L589.298 500.202C589.298 498.958 588.365 497.61 587.328 497.299Z" fill="#1F818C"></path>
<path d="M614.904 506.215L609.72 504.557C608.684 504.246 607.854 504.971 607.854 506.319L607.958 512.643C607.958 513.887 608.787 515.235 609.928 515.546L615.111 517.204C616.148 517.515 616.977 516.79 616.977 515.442L616.874 509.118C616.77 507.874 615.94 506.526 614.904 506.215Z" fill="#1F818C"></path>
<path d="M642.376 515.131L637.192 513.472C636.156 513.161 635.326 513.887 635.326 515.234L635.43 521.558C635.43 522.802 636.259 524.15 637.4 524.461L642.583 526.119C643.62 526.43 644.449 525.705 644.449 524.357L644.346 518.033C644.346 516.789 643.413 515.442 642.376 515.131Z" fill="#1F818C"></path>
<path d="M614.385 191.271L601.219 187.021L601.323 194.588L614.592 198.839L614.385 191.271Z" fill="#B5CDFB"></path>
<path d="M650.567 218.64L601.428 202.675L601.531 210.243L650.67 226.208L650.567 218.64Z" fill="#FEEFF0"></path>
<path d="M651.187 258.966L626.618 250.983L626.929 275.656L651.498 283.639L651.187 258.966Z" fill="#FBEFCB"></path>
<path d="M626.204 226.311L601.634 218.328L602.049 243.001L602.36 267.674L626.929 275.657L626.618 250.984L626.204 226.311Z" fill="#B5CDFB"></path>
<path d="M583.906 357.451L581.625 356.725L582.144 391.04L583.284 391.454V394.253L582.144 393.839L582.662 428.153L584.943 428.879L583.906 357.451ZM582.87 291.207L580.589 290.481L581.522 353.926L583.802 354.652L582.87 291.207Z" fill="#161616"></path>
<path d="M659.17 379.118L652.95 377.044L583.803 354.652L581.522 353.926L512.479 331.43L508.954 330.29L509.058 333.089L512.479 334.229L546.482 345.322V343.041L548.763 343.767V346.048L581.626 356.725L583.907 357.451L652.95 379.844L659.17 381.917V379.118Z" fill="#161616"></path>
<path d="M547 379.636L512.997 368.544L509.576 367.403V370.202L512.997 371.343L547 382.332V379.636ZM583.18 391.351L582.04 390.936L549.281 380.362V383.161L582.144 393.839L583.284 394.253L583.18 391.351Z" fill="#161616"></path>
<path d="M548.764 343.767L546.484 343.041V345.322L547.002 379.636V382.435L547.52 416.749L549.801 417.475L549.283 383.161V380.362L548.764 346.047V343.767Z" fill="#161616"></path>
<path d="M657.096 489.213L654.505 488.384L514.138 442.77V444.117V445.569L654.608 491.183L657.096 492.012V489.213Z" fill="#161616"></path>
<path d="M656.578 452.1L653.986 451.271L584.943 428.879L582.662 428.153L549.799 417.475L547.519 416.749L513.515 405.657L510.094 404.517V407.316L513.619 408.456L653.986 454.07L656.578 454.899V452.1Z" fill="#161616"></path>
<path d="M654.504 311.63L651.913 310.8L511.442 265.186L508.021 264.046V266.845L511.546 267.985L580.589 290.481L582.87 291.207L652.016 313.599L654.504 314.429V311.63Z" fill="#161616"></path>
<path d="M540.678 297.842C534.251 295.769 529.171 300.434 529.275 308.416C529.378 316.295 534.665 324.381 541.093 326.455C547.52 328.528 552.6 323.863 552.496 315.881C552.289 308.105 547.002 300.019 540.678 297.842Z" fill="none" stroke="#221b38" stroke-width="1"></path>
<path opacity="0.1" d="M536.635 328.009C536.116 332.052 523.78 346.773 512.895 359.317C508.748 364.086 504.808 368.44 501.802 371.757L501.491 348.743L512.169 337.339L529.585 318.783C532.384 315.88 537.257 317.85 537.257 321.893C537.153 323.759 536.946 325.729 536.635 328.009Z" fill="#161616"></path>
<path d="M467.798 324.692C479.305 321.167 500.972 314.221 510.095 312.77C519.218 311.319 527.2 299.086 532.073 305.617C536.945 312.148 521.809 325.21 512.79 323.137C508.747 327.283 504.29 329.357 499.002 330.083C489.776 336.406 484.8 341.071 475.159 348.639C469.25 353.304 457.95 367.507 466.036 374.867C474.018 382.124 483.867 379.947 493.093 376.941" stroke="#161616" stroke-width="1.5" stroke-miterlimit="10" stroke-linecap="round"></path>
<path opacity="0.1" d="M395.023 450.441C387.973 454.38 379.68 455.624 371.801 462.155C368.38 465.058 364.959 468.998 361.849 474.699C361.849 474.699 353.763 485.17 342.463 498.958C342.463 498.958 342.463 498.958 342.463 499.061C322.455 523.631 292.702 558.671 281.92 564.165C274.353 568.001 256.418 562.61 239.002 555.457C257.144 552.036 284.823 541.565 290.421 535.242C297.885 526.948 324.735 493.878 343.603 477.602C349.927 472.211 354.074 468.065 356.769 464.436C362.263 457.179 362.056 451.892 362.056 442.666C362.056 428.878 369.52 435.098 362.056 416.645C358.946 408.87 352.933 402.339 347.024 397.466C338.834 390.624 330.852 386.685 330.852 386.685C333.858 384.612 336.865 383.264 339.871 383.16C340.078 383.16 340.286 383.16 340.493 383.16C342.463 383.264 344.847 384.301 347.646 385.856C347.646 385.856 347.646 385.856 347.75 385.856C349.823 387.1 352 388.655 354.281 390.521C354.281 390.521 354.385 390.624 354.696 390.832C360.708 395.704 367.343 402.546 373.563 409.803C373.667 409.907 373.771 410.01 373.874 410.114C378.747 415.816 383.308 421.828 387.144 427.427C387.558 428.049 387.869 428.463 387.973 428.671C389.839 431.573 391.601 434.372 392.949 436.86C396.37 443.91 397.614 448.99 395.023 450.441Z" fill="#161616"></path>
<path d="M304.105 547.061C318.723 530.474 332.2 513.161 342.463 498.959C351.793 486 358.428 475.633 360.812 470.761C360.916 470.45 361.123 470.243 361.227 469.932C363.715 464.956 366.514 461.224 369.52 458.424C377.192 450.96 385.796 449.405 392.845 444.948C394.608 443.807 394.401 441.008 392.742 437.172C391.601 434.373 389.632 431.056 387.144 427.428C383.619 422.141 378.85 416.128 373.667 410.322C373.563 410.219 373.459 410.115 373.356 410.011C369.831 406.072 366.203 402.236 362.471 398.712C362.471 398.712 362.471 398.712 362.367 398.608C359.568 395.912 356.873 393.424 354.177 391.247C351.896 389.278 349.616 387.619 347.439 386.064C347.439 386.064 347.439 386.064 347.335 386.064C342.048 382.332 337.383 380.155 334.273 380.466C332.511 380.57 330.748 381.192 328.986 382.125C314.991 389.381 301.721 418.512 287.518 428.361C283.061 431.471 271.968 440.386 258.491 451.686L258.388 451.79C230.708 474.908 192.558 507.667 178.563 519.692C175.142 522.699 173.172 524.358 173.172 524.358" stroke="#161616" stroke-width="1.5" stroke-miterlimit="10" stroke-linecap="round"></path>
<path opacity="0.1" d="M512.272 382.746C508.54 388.966 500.246 394.046 491.227 396.637C479.927 399.955 463.237 412.706 448.827 416.023C442.088 417.578 432.344 417.475 423.117 415.401C419.592 415.401 415.964 415.609 412.232 416.023C407.774 416.438 403.213 417.371 398.859 418.822C394.608 420.274 390.773 423.384 387.144 427.53C387.04 427.634 387.04 427.738 386.937 427.738C387.351 428.36 387.662 428.774 387.766 428.982C388.077 429.5 387.766 429.085 386.833 427.841C384.241 424.42 377.399 415.298 370.35 407.108C367.654 403.998 364.959 401.199 362.471 398.711C362.471 398.711 362.471 398.711 362.367 398.607C358.532 394.771 355.422 391.972 354.385 391.039C354.178 390.832 354.074 390.728 353.97 390.728C353.97 390.728 354.074 390.832 354.385 391.039C356.355 389.277 358.324 387.514 360.294 385.648C364.648 395.808 374.497 411.047 393.883 408.559C397.407 408.144 400.725 407.522 403.835 406.797C404.042 406.693 404.353 406.693 404.56 406.589C426.434 401.51 440.015 391.35 466.969 391.039C468.524 391.039 469.975 390.935 471.426 390.832C475.573 390.624 479.409 390.002 482.934 389.38C484.489 389.069 486.044 388.758 487.495 388.344C499.728 385.441 507.814 381.398 512.272 382.746Z" fill="#161616"></path>
<path d="M70.8529 108.232H55.7173V124.612H70.8529V108.232Z" fill="#B5CDFB"></path>
<path d="M10 86.9805H258.908" stroke="#161616" stroke-width="1.5" stroke-miterlimit="10" stroke-linecap="round"></path>
<path opacity="0.1" d="M228.532 70.7041H42.2404V79.7232H228.532V70.7041Z" fill="#161616"></path>
<path d="M107.863 252.746H77.9027V258.344H107.863V252.746Z" fill="#B5CDFB"></path>
<path d="M189.035 261.454H77.9027V267.052H189.035V261.454Z" fill="#B5CDFB"></path>
<path opacity="0.1" d="M128.7 373.52H77.9027V414.676H128.7V373.52Z" fill="#161616"></path>
<path opacity="0.3" d="M357.289 275.035H279.019V316.191H357.289V275.035Z" fill="#4151f6"></path>
<path opacity="0.1" d="M194.011 324.381H143.214V365.537H194.011V324.381Z" fill="#161616"></path>
<path opacity="0.1" d="M208.731 221.956H58.1005V236.677H208.731V221.956Z" fill="#161616"></path>
<path opacity="0.1" d="M285.239 72.4668H277.152V80.5529H285.239V72.4668Z" fill="#161616"></path>
<path opacity="0.1" d="M301.41 72.4668H293.324V80.5529H301.41V72.4668Z" fill="#161616"></path>
<path opacity="0.1" d="M293.326 80.5527H285.239V88.6389H293.326V80.5527Z" fill="#161616"></path>
<path opacity="0.1" d="M293.326 64.2773H285.239V72.3635H293.326V64.2773Z" fill="#161616"></path>
<path opacity="0.1" d="M426.66 244.129V266.003H448.534V244.129H426.66Z" fill="#161616"></path>
<path opacity="0.1" d="M448.533 266.072V287.946H470.407V266.072H448.533Z" fill="#161616"></path>
<path opacity="0.1" d="M404.818 266.003V287.877H426.692V266.003H404.818Z" fill="#161616"></path>
<path opacity="0.1" d="M780.566 77.7539H758.692V99.6279H780.566V77.7539Z" fill="#161616"></path>
<path opacity="0.1" d="M758.795 99.6279H736.921V121.502H758.795V99.6279Z" fill="#161616"></path>
<path opacity="0.1" d="M758.795 55.8799H736.921V77.7539H758.795V55.8799Z" fill="#161616"></path>
<path opacity="0.19" d="M59.2416 430.537H51.1555V438.623H59.2416V430.537Z" fill="#1A1A1A"></path>
<path opacity="0.19" d="M75.4135 430.537H67.3274V438.623H75.4135V430.537Z" fill="#1A1A1A"></path>
<path opacity="0.19" d="M67.3286 438.623H59.2425V446.709H67.3286V438.623Z" fill="#1A1A1A"></path>
<path opacity="0.19" d="M67.3286 422.451H59.2425V430.537H67.3286V422.451Z" fill="#1A1A1A"></path>
<path fill-rule="evenodd" clip-rule="evenodd" d="M517.491 60.1172L602.292 87.9003L601.808 89.378L517.007 61.5949L517.491 60.1172Z" fill="#4151f6"></path>
<path fill-rule="evenodd" clip-rule="evenodd" d="M532.419 21.0342L638.368 55.8667L637.883 57.344L531.934 22.5114L532.419 21.0342Z" fill="#4151f6"></path>
<path fill-rule="evenodd" clip-rule="evenodd" d="M345.367 44.0101H342.257V42.4551H345.367V44.0101Z" fill="#4151f6"></path>
<path fill-rule="evenodd" clip-rule="evenodd" d="M354.768 44.0101H351.69V42.4551H354.768V44.0101ZM367.079 44.0101H360.923V42.4551H367.079V44.0101ZM379.389 44.0101H373.234V42.4551H379.389V44.0101ZM391.7 44.0101H385.545V42.4551H391.7V44.0101ZM404.01 44.0101H397.855V42.4551H404.01V44.0101ZM416.321 44.0101H410.166V42.4551H416.321V44.0101ZM428.632 44.0101H422.476V42.4551H428.632V44.0101ZM440.942 44.0101H434.787V42.4551H440.942V44.0101ZM450.175 44.0101H447.098V42.4551H450.175V44.0101Z" fill="#4151f6"></path>
<path fill-rule="evenodd" clip-rule="evenodd" d="M456.395 44.0101H453.285V42.4551H456.395V44.0101Z" fill="#4151f6"></path>
<path fill-rule="evenodd" clip-rule="evenodd" d="M456.396 35.7162H342.257V34.1611H456.396V35.7162Z" fill="#4151f6"></path>
<path fill-rule="evenodd" clip-rule="evenodd" d="M456.396 27.3187H342.257V25.7637H456.396V27.3187Z" fill="#4151f6"></path>
<path fill-rule="evenodd" clip-rule="evenodd" d="M697.904 77.559L647.107 60.6611L647.598 59.1855L698.395 76.0835L697.904 77.559Z" fill="#4151f6"></path>
<path fill-rule="evenodd" clip-rule="evenodd" d="M688.676 117.988L615.279 93.4189L615.773 91.9443L689.17 116.514L688.676 117.988Z" fill="#4151f6"></path>
<path fill-rule="evenodd" clip-rule="evenodd" d="M114.964 431.492V428.153H116.519V431.492H114.964ZM114.964 444.848V438.17H116.519V444.848H114.964ZM114.964 458.204V451.526H116.519V458.204H114.964ZM114.964 471.56V464.882H116.519V471.56H114.964ZM114.964 484.916V478.238H116.519V484.916H114.964ZM114.964 498.272V491.594H116.519V498.272H114.964ZM114.964 508.289V504.95H116.519V508.289H114.964Z" fill="#4151f6"></path>
<path fill-rule="evenodd" clip-rule="evenodd" d="M348.839 274.123V270.784H350.395V274.123H348.839ZM348.839 287.479V280.801H350.395V287.479H348.839ZM348.839 300.835V294.157H350.395V300.835H348.839ZM348.839 314.191V307.513H350.395V314.191H348.839ZM348.839 327.547V320.869H350.395V327.547H348.839ZM348.839 340.903V334.225H350.395V340.903H348.839ZM348.839 350.92V347.581H350.395V350.92H348.839Z" fill="none" stroke="#221b38" stroke-width="1"></path>
<path opacity="0.77" d="M246.571 275.035H208.525V279.804H246.571V275.035Z" fill="none" stroke="#221b38" stroke-width="1"></path>
<path opacity="0.77" d="M264.609 285.609H208.525V290.378H264.609V285.609Z" fill="none" stroke="#221b38" stroke-width="1"></path>
<path opacity="0.77" d="M264.609 296.079H208.525V300.848H264.609V296.079Z" fill="none" stroke="#221b38" stroke-width="1"></path>
<path opacity="0.77" d="M264.609 306.55H208.525V311.319H264.609V306.55Z" fill="none" stroke="#221b38" stroke-width="1"></path>
<path opacity="0.77" d="M264.609 317.124H208.525V321.893H264.609V317.124Z" fill="none" stroke="#221b38" stroke-width="1"></path>
<path opacity="0.77" d="M264.609 336.096H208.525V340.864H264.609V336.096Z" fill="none" stroke="#221b38" stroke-width="1"></path>
<path opacity="0.77" d="M264.609 346.565H208.525V351.334H264.609V346.565Z" fill="none" stroke="#221b38" stroke-width="1"></path>
<path d="M81.4266 481.853H43.3804V486.621H81.4266V481.853Z" fill="#4151f6"></path>
<path d="M99.4649 492.323H43.3804V497.092H99.4649V492.323Z" fill="#4151f6"></path>
<path d="M99.4649 502.794H43.3804V507.563H99.4649V502.794Z" fill="#4151f6"></path>
<path d="M81.4266 524.771H43.3804V529.54H81.4266V524.771Z" fill="#4151f6"></path>
<path d="M99.4649 535.242H43.3804V540.011H99.4649V535.242Z" fill="#4151f6"></path>
<path d="M99.4649 545.713H43.3804V550.482H99.4649V545.713Z" fill="#4151f6"></path>
<path d="M342.257 68.3203H456.396" stroke="#161616" stroke-width="1.5" stroke-miterlimit="10" stroke-linecap="round"></path>
<path d="M342.257 60.0264H456.396" stroke="#161616" stroke-width="1.5" stroke-miterlimit="10" stroke-linecap="round"></path>
<path d="M342.257 51.6299H456.396" stroke="#161616" stroke-width="1.5" stroke-miterlimit="10" stroke-linecap="round"></path>
<path d="M260.565 251.192H349.617V152.292" stroke="#161616" stroke-width="1.5" stroke-miterlimit="10" stroke-linecap="round"></path>
<path opacity="0.77" d="M356.978 322.722H279.019V327.49H356.978V322.722Z" fill="none" stroke="#221b38" stroke-width="1"></path>
<path opacity="0.77" d="M356.978 333.192H279.019V337.961H356.978V333.192Z" fill="none" stroke="#221b38" stroke-width="1"></path>
<path d="M474.951 194.069H396.474" stroke="#161616" stroke-width="1.5" stroke-miterlimit="10" stroke-linecap="round"></path>
<path d="M450.694 216.877H372.321" stroke="#161616" stroke-width="1.5" stroke-miterlimit="10" stroke-linecap="round"></path>
<path d="M450.694 212.005H372.321" stroke="#161616" stroke-width="1.5" stroke-miterlimit="10" stroke-linecap="round"></path>
<path d="M460.749 187.746H396.474" stroke="#161616" stroke-width="1.5" stroke-miterlimit="10" stroke-linecap="round"></path>
<path fill-rule="evenodd" clip-rule="evenodd" d="M719.288 178.993L719.245 175.939L720.8 175.917L720.843 178.971L719.288 178.993ZM719.461 191.208L719.375 185.101L720.93 185.079L721.016 191.186L719.461 191.208ZM719.634 203.424L719.547 197.316L721.102 197.294L721.189 203.402L719.634 203.424ZM719.807 215.64L719.72 209.532L721.275 209.51L721.362 215.618L719.807 215.64ZM719.979 227.855L719.893 221.747L721.448 221.725L721.534 227.833L719.979 227.855ZM720.152 240.071L720.066 233.963L721.621 233.941L721.707 240.049L720.152 240.071ZM720.325 252.286L720.239 246.179L721.793 246.157L721.88 252.264L720.325 252.286ZM720.498 264.502L720.411 258.394L721.966 258.372L722.053 264.48L720.498 264.502ZM720.671 276.718L720.584 270.61L722.139 270.588L722.225 276.696L720.671 276.718ZM720.843 288.933L720.757 282.825L722.312 282.803L722.398 288.911L720.843 288.933ZM721.016 301.149L720.93 295.041L722.485 295.019L722.571 301.127L721.016 301.149ZM721.189 313.364L721.103 307.257L722.657 307.235L722.744 313.342L721.189 313.364ZM721.318 322.526L721.275 319.472L722.83 319.45L722.873 322.504L721.318 322.526Z" fill="#4151f6"></path>
<path fill-rule="evenodd" clip-rule="evenodd" d="M730.07 209.577L730.027 206.521L731.582 206.499L731.625 209.555L730.07 209.577ZM730.243 221.801L730.157 215.689L731.712 215.667L731.798 221.779L730.243 221.801ZM730.416 234.025L730.329 227.913L731.884 227.891L731.971 234.004L730.416 234.025ZM730.589 246.25L730.502 240.138L732.057 240.116L732.144 246.228L730.589 246.25ZM730.761 258.474L730.675 252.362L732.23 252.34L732.316 258.452L730.761 258.474ZM730.934 270.698L730.848 264.586L732.403 264.564L732.489 270.676L730.934 270.698ZM731.107 282.922L731.021 276.81L732.575 276.788L732.662 282.9L731.107 282.922ZM731.28 295.147L731.193 289.035L732.748 289.013L732.835 295.125L731.28 295.147ZM731.453 307.371L731.366 301.259L732.921 301.237L733.007 307.349L731.453 307.371ZM731.625 319.595L731.539 313.483L733.094 313.461L733.18 319.573L731.625 319.595ZM731.798 331.819L731.712 325.707L733.267 325.685L733.353 331.797L731.798 331.819ZM731.971 344.044L731.884 337.931L733.439 337.909L733.526 344.022L731.971 344.044ZM732.1 353.212L732.057 350.156L733.612 350.134L733.655 353.19L732.1 353.212Z" fill="#4151f6"></path>
<path opacity="0.36" d="M790 532.961H755.479V542.291H790V532.961Z" fill="none" stroke="#221b38" stroke-width="1"></path>
<path d="M652.015 313.601L582.869 291.209L583.802 354.654L652.948 377.046L652.015 313.601Z" fill="#4151f6"></path>
<path d="M581.626 356.726L548.763 346.048L549.282 380.362L582.145 391.04L581.626 356.726Z" fill="#4151f6"></path>
<path opacity="0.35" d="M509.785 482.371L510.303 518.966C510.303 520.003 511.029 521.143 511.858 521.454L535.909 529.229L649.322 162.451C649.322 161.414 648.596 160.274 647.767 160.066L615.63 149.596L509.785 482.371ZM509.785 482.371L615.526 149.596L509.785 482.371Z" fill="#FEEFF0"></path>
</svg>
